<svg width="37" height="36" viewBox="0 0 37 36" fill="none" xmlns="http://www.w3.org/2000/svg">
<path d="M32.8889 0H4.11111C1.85 0 0 1.8 0 4V32C0 34.202 1.85 36 4.11111 36H18.5V22H14.3889V17.05H18.5V12.95C18.5 8.622 20.9913 5.582 26.2412 5.582L29.9474 5.586V10.796H27.4869C25.4437 10.796 24.6667 12.288 24.6667 13.672V17.052H29.9453L28.7778 22H24.6667V36H32.8889C35.15 36 37 34.202 37 32V4C37 1.8 35.15 0 32.8889 0Z" fill="#29B287"/>
<path d="M32.8889 0H4.11111C1.85 0 0 1.8 0 4V32C0 34.202 1.85 36 4.11111 36H18.5V22H14.3889V17.05H18.5V12.95C18.5 8.622 20.9913 5.582 26.2412 5.582L29.9474 5.586V10.796H27.4869C25.4437 10.796 24.6667 12.288 24.6667 13.672V17.052H29.9453L28.7778 22H24.6667V36H32.8889C35.15 36 37 34.202 37 32V4C37 1.8 35.15 0 32.8889 0Z" fill="black" fill-opacity="0.2"/>
<path d="M32.8889 0H4.11111C1.85 0 0 1.8 0 4V32C0 34.202 1.85 36 4.11111 36H18.5V22H14.3889V17.05H18.5V12.95C18.5 8.622 20.9913 5.582 26.2412 5.582L29.9474 5.586V10.796H27.4869C25.4437 10.796 24.6667 12.288 24.6667 13.672V17.052H29.9453L28.7778 22H24.6667V36H32.8889C35.15 36 37 34.202 37 32V4C37 1.8 35.15 0 32.8889 0Z" fill="black" fill-opacity="0.2"/>
</svg>
