<svg width="36" height="36" viewBox="0 0 36 36" fill="none" xmlns="http://www.w3.org/2000/svg">
<path d="M18 13.536C17.1171 13.536 16.254 13.7978 15.5199 14.2883C14.7858 14.7788 14.2137 15.476 13.8758 16.2917C13.5379 17.1074 13.4495 18.005 13.6218 18.8709C13.794 19.7368 14.2192 20.5322 14.8435 21.1565C15.4678 21.7808 16.2632 22.206 17.1291 22.3782C17.995 22.5505 18.8926 22.4621 19.7083 22.1242C20.524 21.7863 21.2212 21.2142 21.7117 20.4801C22.2022 19.746 22.464 18.8829 22.464 18C22.464 17.4138 22.3485 16.8333 22.1242 16.2917C21.8999 15.7501 21.571 15.258 21.1565 14.8435C20.742 14.429 20.2499 14.1001 19.7083 13.8758C19.1667 13.6515 18.5862 13.536 18 13.536ZM35.874 9.126C35.8657 7.73586 35.6097 6.35832 35.118 5.058C34.7567 4.10627 34.1977 3.24197 33.4779 2.52213C32.758 1.8023 31.8937 1.24329 30.942 0.882C29.6417 0.390325 28.2641 0.134323 26.874 0.126C24.552 -1.19209e-07 23.868 0 18 0C12.132 0 11.448 -1.19209e-07 9.126 0.126C7.73586 0.134323 6.35832 0.390325 5.058 0.882C4.10627 1.24329 3.24197 1.8023 2.52213 2.52213C1.8023 3.24197 1.24329 4.10627 0.882 5.058C0.390325 6.35832 0.134323 7.73586 0.126 9.126C-1.19209e-07 11.448 0 12.132 0 18C0 23.868 -1.19209e-07 24.552 0.126 26.874C0.146753 28.2688 0.40233 29.6501 0.882 30.96C1.23967 31.9084 1.79847 32.7681 2.52 33.48C3.23711 34.2037 4.10316 34.7626 5.058 35.118C6.35832 35.6097 7.73586 35.8657 9.126 35.874C11.448 36 12.132 36 18 36C23.868 36 24.552 36 26.874 35.874C28.2641 35.8657 29.6417 35.6097 30.942 35.118C31.8968 34.7626 32.7629 34.2037 33.48 33.48C34.2015 32.7681 34.7603 31.9084 35.118 30.96C35.6081 29.653 35.864 28.2698 35.874 26.874C36 24.552 36 23.868 36 18C36 12.132 36 11.448 35.874 9.126ZM31.302 23.526C31.2452 24.6369 31.0081 25.7312 30.6 26.766C30.2506 27.6294 29.7311 28.4138 29.0724 29.0724C28.4138 29.7311 27.6294 30.2506 26.766 30.6C25.7214 30.9854 24.621 31.1982 23.508 31.23H12.492C11.379 31.1982 10.2786 30.9854 9.234 30.6C8.3411 30.2689 7.5349 29.7396 6.876 29.052C6.22335 28.4066 5.7196 27.6264 5.4 26.766C5.01434 25.7221 4.80744 24.6207 4.788 23.508V12.492C4.80744 11.3793 5.01434 10.2779 5.4 9.234C5.73115 8.3411 6.26041 7.5349 6.948 6.876C7.59695 6.22775 8.37612 5.72466 9.234 5.4C10.2786 5.01461 11.379 4.80183 12.492 4.77H23.508C24.621 4.80183 25.7214 5.01461 26.766 5.4C27.6589 5.73115 28.4651 6.26041 29.124 6.948C29.7767 7.59338 30.2804 8.37358 30.6 9.234C30.9854 10.2786 31.1982 11.379 31.23 12.492V18C31.23 21.708 31.356 22.086 31.302 23.508V23.526ZM28.422 10.134C28.2077 9.55257 27.8698 9.02456 27.4316 8.58638C26.9934 8.14821 26.4654 7.81031 25.884 7.596C25.0856 7.31927 24.2448 7.18522 23.4 7.2H12.6C11.7509 7.2083 10.9099 7.36674 10.116 7.668C9.54347 7.87258 9.02105 8.19668 8.58345 8.61876C8.14585 9.04084 7.80311 9.55123 7.578 10.116C7.31755 10.9179 7.18987 11.7569 7.2 12.6V23.4C7.21883 24.2481 7.37694 25.0872 7.668 25.884C7.88231 26.4654 8.22021 26.9934 8.65838 27.4316C9.09656 27.8698 9.62457 28.2077 10.206 28.422C10.9742 28.7036 11.7823 28.8615 12.6 28.89H23.4C24.2491 28.8817 25.0901 28.7233 25.884 28.422C26.4654 28.2077 26.9934 27.8698 27.4316 27.4316C27.8698 26.9934 28.2077 26.4654 28.422 25.884C28.7233 25.0901 28.8817 24.2491 28.89 23.4V12.6C28.8897 11.7501 28.731 10.9077 28.422 10.116V10.134ZM18 24.876C17.0979 24.876 16.2046 24.698 15.3714 24.3522C14.5382 24.0065 13.7813 23.4997 13.1443 22.861C12.5072 22.2222 12.0024 21.4641 11.6589 20.63C11.3153 19.7958 11.1396 18.9021 11.142 18C11.142 16.6393 11.5457 15.3092 12.3021 14.178C13.0584 13.0469 14.1334 12.1656 15.3908 11.6457C16.6483 11.1258 18.0318 10.9907 19.3661 11.2575C20.7004 11.5242 21.9255 12.1809 22.8864 13.1443C23.8473 14.1078 24.5008 15.3346 24.7641 16.6696C25.0273 18.0046 24.8886 19.3877 24.3654 20.6438C23.8422 21.8999 22.9581 22.9726 21.825 23.7259C20.6919 24.4793 19.3607 24.8796 18 24.876ZM25.2 12.474C24.8021 12.4319 24.4339 12.244 24.1662 11.9465C23.8986 11.6491 23.7505 11.2631 23.7505 10.863C23.7505 10.4629 23.8986 10.0769 24.1662 9.77945C24.4339 9.482 24.8021 9.29412 25.2 9.252C25.5979 9.29412 25.9661 9.482 26.2338 9.77945C26.5014 10.0769 26.6495 10.4629 26.6495 10.863C26.6495 11.2631 26.5014 11.6491 26.2338 11.9465C25.9661 12.244 25.5979 12.4319 25.2 12.474Z" fill="#29B287"/>
<path d="M18 13.536C17.1171 13.536 16.254 13.7978 15.5199 14.2883C14.7858 14.7788 14.2137 15.476 13.8758 16.2917C13.5379 17.1074 13.4495 18.005 13.6218 18.8709C13.794 19.7368 14.2192 20.5322 14.8435 21.1565C15.4678 21.7808 16.2632 22.206 17.1291 22.3782C17.995 22.5505 18.8926 22.4621 19.7083 22.1242C20.524 21.7863 21.2212 21.2142 21.7117 20.4801C22.2022 19.746 22.464 18.8829 22.464 18C22.464 17.4138 22.3485 16.8333 22.1242 16.2917C21.8999 15.7501 21.571 15.258 21.1565 14.8435C20.742 14.429 20.2499 14.1001 19.7083 13.8758C19.1667 13.6515 18.5862 13.536 18 13.536ZM35.874 9.126C35.8657 7.73586 35.6097 6.35832 35.118 5.058C34.7567 4.10627 34.1977 3.24197 33.4779 2.52213C32.758 1.8023 31.8937 1.24329 30.942 0.882C29.6417 0.390325 28.2641 0.134323 26.874 0.126C24.552 -1.19209e-07 23.868 0 18 0C12.132 0 11.448 -1.19209e-07 9.126 0.126C7.73586 0.134323 6.35832 0.390325 5.058 0.882C4.10627 1.24329 3.24197 1.8023 2.52213 2.52213C1.8023 3.24197 1.24329 4.10627 0.882 5.058C0.390325 6.35832 0.134323 7.73586 0.126 9.126C-1.19209e-07 11.448 0 12.132 0 18C0 23.868 -1.19209e-07 24.552 0.126 26.874C0.146753 28.2688 0.40233 29.6501 0.882 30.96C1.23967 31.9084 1.79847 32.7681 2.52 33.48C3.23711 34.2037 4.10316 34.7626 5.058 35.118C6.35832 35.6097 7.73586 35.8657 9.126 35.874C11.448 36 12.132 36 18 36C23.868 36 24.552 36 26.874 35.874C28.2641 35.8657 29.6417 35.6097 30.942 35.118C31.8968 34.7626 32.7629 34.2037 33.48 33.48C34.2015 32.7681 34.7603 31.9084 35.118 30.96C35.6081 29.653 35.864 28.2698 35.874 26.874C36 24.552 36 23.868 36 18C36 12.132 36 11.448 35.874 9.126ZM31.302 23.526C31.2452 24.6369 31.0081 25.7312 30.6 26.766C30.2506 27.6294 29.7311 28.4138 29.0724 29.0724C28.4138 29.7311 27.6294 30.2506 26.766 30.6C25.7214 30.9854 24.621 31.1982 23.508 31.23H12.492C11.379 31.1982 10.2786 30.9854 9.234 30.6C8.3411 30.2689 7.5349 29.7396 6.876 29.052C6.22335 28.4066 5.7196 27.6264 5.4 26.766C5.01434 25.7221 4.80744 24.6207 4.788 23.508V12.492C4.80744 11.3793 5.01434 10.2779 5.4 9.234C5.73115 8.3411 6.26041 7.5349 6.948 6.876C7.59695 6.22775 8.37612 5.72466 9.234 5.4C10.2786 5.01461 11.379 4.80183 12.492 4.77H23.508C24.621 4.80183 25.7214 5.01461 26.766 5.4C27.6589 5.73115 28.4651 6.26041 29.124 6.948C29.7767 7.59338 30.2804 8.37358 30.6 9.234C30.9854 10.2786 31.1982 11.379 31.23 12.492V18C31.23 21.708 31.356 22.086 31.302 23.508V23.526ZM28.422 10.134C28.2077 9.55257 27.8698 9.02456 27.4316 8.58638C26.9934 8.14821 26.4654 7.81031 25.884 7.596C25.0856 7.31927 24.2448 7.18522 23.4 7.2H12.6C11.7509 7.2083 10.9099 7.36674 10.116 7.668C9.54347 7.87258 9.02105 8.19668 8.58345 8.61876C8.14585 9.04084 7.80311 9.55123 7.578 10.116C7.31755 10.9179 7.18987 11.7569 7.2 12.6V23.4C7.21883 24.2481 7.37694 25.0872 7.668 25.884C7.88231 26.4654 8.22021 26.9934 8.65838 27.4316C9.09656 27.8698 9.62457 28.2077 10.206 28.422C10.9742 28.7036 11.7823 28.8615 12.6 28.89H23.4C24.2491 28.8817 25.0901 28.7233 25.884 28.422C26.4654 28.2077 26.9934 27.8698 27.4316 27.4316C27.8698 26.9934 28.2077 26.4654 28.422 25.884C28.7233 25.0901 28.8817 24.2491 28.89 23.4V12.6C28.8897 11.7501 28.731 10.9077 28.422 10.116V10.134ZM18 24.876C17.0979 24.876 16.2046 24.698 15.3714 24.3522C14.5382 24.0065 13.7813 23.4997 13.1443 22.861C12.5072 22.2222 12.0024 21.4641 11.6589 20.63C11.3153 19.7958 11.1396 18.9021 11.142 18C11.142 16.6393 11.5457 15.3092 12.3021 14.178C13.0584 13.0469 14.1334 12.1656 15.3908 11.6457C16.6483 11.1258 18.0318 10.9907 19.3661 11.2575C20.7004 11.5242 21.9255 12.1809 22.8864 13.1443C23.8473 14.1078 24.5008 15.3346 24.7641 16.6696C25.0273 18.0046 24.8886 19.3877 24.3654 20.6438C23.8422 21.8999 22.9581 22.9726 21.825 23.7259C20.6919 24.4793 19.3607 24.8796 18 24.876ZM25.2 12.474C24.8021 12.4319 24.4339 12.244 24.1662 11.9465C23.8986 11.6491 23.7505 11.2631 23.7505 10.863C23.7505 10.4629 23.8986 10.0769 24.1662 9.77945C24.4339 9.482 24.8021 9.29412 25.2 9.252C25.5979 9.29412 25.9661 9.482 26.2338 9.77945C26.5014 10.0769 26.6495 10.4629 26.6495 10.863C26.6495 11.2631 26.5014 11.6491 26.2338 11.9465C25.9661 12.244 25.5979 12.4319 25.2 12.474Z" fill="black" fill-opacity="0.2"/>
<path d="M18 13.536C17.1171 13.536 16.254 13.7978 15.5199 14.2883C14.7858 14.7788 14.2137 15.476 13.8758 16.2917C13.5379 17.1074 13.4495 18.005 13.6218 18.8709C13.794 19.7368 14.2192 20.5322 14.8435 21.1565C15.4678 21.7808 16.2632 22.206 17.1291 22.3782C17.995 22.5505 18.8926 22.4621 19.7083 22.1242C20.524 21.7863 21.2212 21.2142 21.7117 20.4801C22.2022 19.746 22.464 18.8829 22.464 18C22.464 17.4138 22.3485 16.8333 22.1242 16.2917C21.8999 15.7501 21.571 15.258 21.1565 14.8435C20.742 14.429 20.2499 14.1001 19.7083 13.8758C19.1667 13.6515 18.5862 13.536 18 13.536ZM35.874 9.126C35.8657 7.73586 35.6097 6.35832 35.118 5.058C34.7567 4.10627 34.1977 3.24197 33.4779 2.52213C32.758 1.8023 31.8937 1.24329 30.942 0.882C29.6417 0.390325 28.2641 0.134323 26.874 0.126C24.552 -1.19209e-07 23.868 0 18 0C12.132 0 11.448 -1.19209e-07 9.126 0.126C7.73586 0.134323 6.35832 0.390325 5.058 0.882C4.10627 1.24329 3.24197 1.8023 2.52213 2.52213C1.8023 3.24197 1.24329 4.10627 0.882 5.058C0.390325 6.35832 0.134323 7.73586 0.126 9.126C-1.19209e-07 11.448 0 12.132 0 18C0 23.868 -1.19209e-07 24.552 0.126 26.874C0.146753 28.2688 0.40233 29.6501 0.882 30.96C1.23967 31.9084 1.79847 32.7681 2.52 33.48C3.23711 34.2037 4.10316 34.7626 5.058 35.118C6.35832 35.6097 7.73586 35.8657 9.126 35.874C11.448 36 12.132 36 18 36C23.868 36 24.552 36 26.874 35.874C28.2641 35.8657 29.6417 35.6097 30.942 35.118C31.8968 34.7626 32.7629 34.2037 33.48 33.48C34.2015 32.7681 34.7603 31.9084 35.118 30.96C35.6081 29.653 35.864 28.2698 35.874 26.874C36 24.552 36 23.868 36 18C36 12.132 36 11.448 35.874 9.126ZM31.302 23.526C31.2452 24.6369 31.0081 25.7312 30.6 26.766C30.2506 27.6294 29.7311 28.4138 29.0724 29.0724C28.4138 29.7311 27.6294 30.2506 26.766 30.6C25.7214 30.9854 24.621 31.1982 23.508 31.23H12.492C11.379 31.1982 10.2786 30.9854 9.234 30.6C8.3411 30.2689 7.5349 29.7396 6.876 29.052C6.22335 28.4066 5.7196 27.6264 5.4 26.766C5.01434 25.7221 4.80744 24.6207 4.788 23.508V12.492C4.80744 11.3793 5.01434 10.2779 5.4 9.234C5.73115 8.3411 6.26041 7.5349 6.948 6.876C7.59695 6.22775 8.37612 5.72466 9.234 5.4C10.2786 5.01461 11.379 4.80183 12.492 4.77H23.508C24.621 4.80183 25.7214 5.01461 26.766 5.4C27.6589 5.73115 28.4651 6.26041 29.124 6.948C29.7767 7.59338 30.2804 8.37358 30.6 9.234C30.9854 10.2786 31.1982 11.379 31.23 12.492V18C31.23 21.708 31.356 22.086 31.302 23.508V23.526ZM28.422 10.134C28.2077 9.55257 27.8698 9.02456 27.4316 8.58638C26.9934 8.14821 26.4654 7.81031 25.884 7.596C25.0856 7.31927 24.2448 7.18522 23.4 7.2H12.6C11.7509 7.2083 10.9099 7.36674 10.116 7.668C9.54347 7.87258 9.02105 8.19668 8.58345 8.61876C8.14585 9.04084 7.80311 9.55123 7.578 10.116C7.31755 10.9179 7.18987 11.7569 7.2 12.6V23.4C7.21883 24.2481 7.37694 25.0872 7.668 25.884C7.88231 26.4654 8.22021 26.9934 8.65838 27.4316C9.09656 27.8698 9.62457 28.2077 10.206 28.422C10.9742 28.7036 11.7823 28.8615 12.6 28.89H23.4C24.2491 28.8817 25.0901 28.7233 25.884 28.422C26.4654 28.2077 26.9934 27.8698 27.4316 27.4316C27.8698 26.9934 28.2077 26.4654 28.422 25.884C28.7233 25.0901 28.8817 24.2491 28.89 23.4V12.6C28.8897 11.7501 28.731 10.9077 28.422 10.116V10.134ZM18 24.876C17.0979 24.876 16.2046 24.698 15.3714 24.3522C14.5382 24.0065 13.7813 23.4997 13.1443 22.861C12.5072 22.2222 12.0024 21.4641 11.6589 20.63C11.3153 19.7958 11.1396 18.9021 11.142 18C11.142 16.6393 11.5457 15.3092 12.3021 14.178C13.0584 13.0469 14.1334 12.1656 15.3908 11.6457C16.6483 11.1258 18.0318 10.9907 19.3661 11.2575C20.7004 11.5242 21.9255 12.1809 22.8864 13.1443C23.8473 14.1078 24.5008 15.3346 24.7641 16.6696C25.0273 18.0046 24.8886 19.3877 24.3654 20.6438C23.8422 21.8999 22.9581 22.9726 21.825 23.7259C20.6919 24.4793 19.3607 24.8796 18 24.876ZM25.2 12.474C24.8021 12.4319 24.4339 12.244 24.1662 11.9465C23.8986 11.6491 23.7505 11.2631 23.7505 10.863C23.7505 10.4629 23.8986 10.0769 24.1662 9.77945C24.4339 9.482 24.8021 9.29412 25.2 9.252C25.5979 9.29412 25.9661 9.482 26.2338 9.77945C26.5014 10.0769 26.6495 10.4629 26.6495 10.863C26.6495 11.2631 26.5014 11.6491 26.2338 11.9465C25.9661 12.244 25.5979 12.4319 25.2 12.474Z" fill="black" fill-opacity="0.2"/>
</svg>
