<svg width="37" height="36" viewBox="0 0 37 36" fill="none" xmlns="http://www.w3.org/2000/svg">
<path d="M32.8889 0C33.9792 0 35.0249 0.421427 35.7959 1.17157C36.5669 1.92172 37 2.93913 37 4V32C37 33.0609 36.5669 34.0783 35.7959 34.8284C35.0249 35.5786 33.9792 36 32.8889 36H4.11111C3.02078 36 1.9751 35.5786 1.20412 34.8284C0.433133 34.0783 0 33.0609 0 32V4C0 2.93913 0.433133 1.92172 1.20412 1.17157C1.9751 0.421427 3.02078 0 4.11111 0H32.8889ZM31.8611 31V20.4C31.8611 18.6708 31.1551 17.0124 29.8984 15.7897C28.6417 14.5669 26.9372 13.88 25.16 13.88C23.4128 13.88 21.3778 14.92 20.3911 16.48V14.26H14.6561V31H20.3911V21.14C20.3911 19.6 21.6656 18.34 23.2483 18.34C24.0116 18.34 24.7435 18.635 25.2832 19.1601C25.8229 19.6852 26.1261 20.3974 26.1261 21.14V31H31.8611ZM7.97556 11.12C8.89144 11.12 9.76981 10.766 10.4174 10.1359C11.0651 9.50576 11.4289 8.65113 11.4289 7.76C11.4289 5.9 9.88722 4.38 7.97556 4.38C7.05422 4.38 6.17063 4.73611 5.51915 5.36998C4.86766 6.00385 4.50167 6.86357 4.50167 7.76C4.50167 9.62 6.06389 11.12 7.97556 11.12ZM10.8328 31V14.26H5.13889V31H10.8328Z" fill="#29B287"/>
<path d="M32.8889 0C33.9792 0 35.0249 0.421427 35.7959 1.17157C36.5669 1.92172 37 2.93913 37 4V32C37 33.0609 36.5669 34.0783 35.7959 34.8284C35.0249 35.5786 33.9792 36 32.8889 36H4.11111C3.02078 36 1.9751 35.5786 1.20412 34.8284C0.433133 34.0783 0 33.0609 0 32V4C0 2.93913 0.433133 1.92172 1.20412 1.17157C1.9751 0.421427 3.02078 0 4.11111 0H32.8889ZM31.8611 31V20.4C31.8611 18.6708 31.1551 17.0124 29.8984 15.7897C28.6417 14.5669 26.9372 13.88 25.16 13.88C23.4128 13.88 21.3778 14.92 20.3911 16.48V14.26H14.6561V31H20.3911V21.14C20.3911 19.6 21.6656 18.34 23.2483 18.34C24.0116 18.34 24.7435 18.635 25.2832 19.1601C25.8229 19.6852 26.1261 20.3974 26.1261 21.14V31H31.8611ZM7.97556 11.12C8.89144 11.12 9.76981 10.766 10.4174 10.1359C11.0651 9.50576 11.4289 8.65113 11.4289 7.76C11.4289 5.9 9.88722 4.38 7.97556 4.38C7.05422 4.38 6.17063 4.73611 5.51915 5.36998C4.86766 6.00385 4.50167 6.86357 4.50167 7.76C4.50167 9.62 6.06389 11.12 7.97556 11.12ZM10.8328 31V14.26H5.13889V31H10.8328Z" fill="black" fill-opacity="0.2"/>
<path d="M32.8889 0C33.9792 0 35.0249 0.421427 35.7959 1.17157C36.5669 1.92172 37 2.93913 37 4V32C37 33.0609 36.5669 34.0783 35.7959 34.8284C35.0249 35.5786 33.9792 36 32.8889 36H4.11111C3.02078 36 1.9751 35.5786 1.20412 34.8284C0.433133 34.0783 0 33.0609 0 32V4C0 2.93913 0.433133 1.92172 1.20412 1.17157C1.9751 0.421427 3.02078 0 4.11111 0H32.8889ZM31.8611 31V20.4C31.8611 18.6708 31.1551 17.0124 29.8984 15.7897C28.6417 14.5669 26.9372 13.88 25.16 13.88C23.4128 13.88 21.3778 14.92 20.3911 16.48V14.26H14.6561V31H20.3911V21.14C20.3911 19.6 21.6656 18.34 23.2483 18.34C24.0116 18.34 24.7435 18.635 25.2832 19.1601C25.8229 19.6852 26.1261 20.3974 26.1261 21.14V31H31.8611ZM7.97556 11.12C8.89144 11.12 9.76981 10.766 10.4174 10.1359C11.0651 9.50576 11.4289 8.65113 11.4289 7.76C11.4289 5.9 9.88722 4.38 7.97556 4.38C7.05422 4.38 6.17063 4.73611 5.51915 5.36998C4.86766 6.00385 4.50167 6.86357 4.50167 7.76C4.50167 9.62 6.06389 11.12 7.97556 11.12ZM10.8328 31V14.26H5.13889V31H10.8328Z" fill="black" fill-opacity="0.2"/>
</svg>
